<?xml version="1.0" encoding="UTF-8"?>
<svg id="_Слой_1" data-name="Слой 1" xmlns="http://www.w3.org/2000/svg" viewBox="0 0 846 846">
  <defs>
    <style>
      .cls-1 {
        fill: #000;
      }

      .cls-1, .cls-2 {
        stroke-width: 0px;
      }

      .cls-2 {
        fill: #fff;
      }
    </style>
  </defs>
  <path class="cls-2" d="M0,846C0,564,0,282,0,0c282,0,564,0,846,0,0,282,0,564,0,846-282,0-564,0-846,0ZM185.85,453.6c-.43.03-.87.06-1.3.09-3.87-9.32-7.75-18.62-11.6-27.95-10.44-25.25-20.81-50.52-31.38-75.71-.84-2-2.79-4.41-4.67-4.91-4.92-1.29-6.51.24-7.53,5.88-5.49,30.33-10.95,60.66-16.41,91-2.75,15.24-5.45,30.5-8.25,45.73-.81,4.37.81,6.32,5.24,6.13,2.49-.11,5-.02,7.5-.03,7.5,0,7.79-.27,8.93-7.58,4.34-27.82,8.7-55.64,13.07-83.46.25-1.61.72-3.19,1.09-4.79,4.36,7.77,7.45,15.47,10.51,23.18,9.15,23.06,18.35,46.11,27.38,69.22,1.47,3.76,3.43,5.68,7.71,5.4,4.01-.26,4.69-3.18,5.75-5.93,11.38-29.33,22.74-58.67,34.12-88,.57-1.46,1.29-2.86,2.43-5.38.64,2.66,1.05,4.05,1.29,5.46,4.35,25.62,8.58,51.25,13.03,76.85,2.93,16.8-.43,14.32,17.48,14.39,5.53.02,6.24-.9,5.25-6.23-8.44-45.54-16.94-91.08-25.37-136.62-.59-3.17-1.34-5.72-5.34-5.97-3.94-.25-5.57,1.77-6.88,5.07-7.88,19.8-15.89,39.55-23.88,59.32-6.04,14.95-12.11,29.9-18.17,44.85ZM285.99,419.63c-.04,42.35,32.68,75.24,74.95,75.33,42.23.09,75.67-32.83,75.83-74.64.16-42.51-33.17-76.23-75.39-76.27-42.23-.04-75.34,33.16-75.38,75.58ZM703.88,427.35c0,2.26,0,4.05,0,5.84.03,14.66.03,29.32.1,43.98.08,16.41-1.83,14.61,14.7,14.62,5.9,0,7.04-1.15,7.04-6.98,0-13.66-.06-27.32-.12-40.98-.13-30.65-.27-61.3-.44-91.95-.03-6.1-.86-6.87-6.96-6.9-2.5-.01-5,0-7.5.03-6.52.06-7.17.66-7.15,7.11.05,16.82.03,33.65.29,50.47.06,3.89-.98,5.14-5.01,5.12-22.15-.13-44.31-.12-66.46.2-4.76.07-5.86-1.47-5.81-5.93.19-16.82-.04-33.65.02-50.47.02-4.35-1.57-6.59-6.16-6.35-3.16.16-6.33.15-9.49.03-4.53-.17-6.1,1.93-6.08,6.38.22,44.47.3,88.95.44,133.42.02,6.2.85,7,6.84,7.03,2.67.02,5.33.01,8-.02,6.05-.08,6.79-.8,6.79-7.05-.02-17.49.03-34.98-.24-52.47-.07-4.24,1.31-5.35,5.4-5.33,22.32.13,44.64-.01,66.96-.04,1.32,0,2.63.13,4.83.25ZM572.78,492.13c2.65,0,4.15.02,5.65,0,6.1-.1,7.31-1.84,4.84-7.25-20.77-45.43-41.57-90.85-62.35-136.27-1.2-2.61-2.41-5.92-5.85-4.85-2.26.7-4.73,2.93-5.74,5.11-11.04,23.9-21.79,47.92-32.64,71.9-9.68,21.39-19.38,42.77-29.05,64.16-2.72,6.03-1.59,7.7,5.16,7.77,2.83.03,5.67-.12,8.5.03,3.87.2,6.13-1.54,7.62-5.08,3.28-7.83,6.92-15.51,10.21-23.34,1.13-2.68,2.64-3.75,5.6-3.75,20.16,0,40.32-.09,60.49-.31,3.09-.03,4.82.87,6.05,3.83,2.68,6.45,6.14,12.6,8.55,19.14,2.54,6.88,6.23,10.96,12.96,8.93Z"/>
  <path class="cls-1" d="M185.85,453.6c6.06-14.95,12.12-29.89,18.17-44.85,7.98-19.76,16-39.51,23.88-59.32,1.31-3.31,2.94-5.32,6.88-5.07,4,.26,4.75,2.8,5.34,5.97,8.43,45.54,16.93,91.08,25.37,136.62.99,5.33.27,6.25-5.25,6.23-17.9-.07-14.55,2.41-17.48-14.39-4.46-25.6-8.69-51.23-13.03-76.85-.24-1.41-.65-2.79-1.29-5.46-1.15,2.52-1.87,3.92-2.43,5.38-11.38,29.33-22.74,58.67-34.12,88-1.06,2.74-1.74,5.67-5.75,5.93-4.28.28-6.24-1.65-7.71-5.4-9.03-23.11-18.23-46.16-27.38-69.22-3.06-7.71-6.15-15.41-10.51-23.18-.37,1.6-.84,3.18-1.09,4.79-4.37,27.82-8.73,55.64-13.07,83.46-1.14,7.31-1.43,7.57-8.93,7.58-2.5,0-5-.09-7.5.03-4.43.2-6.05-1.75-5.24-6.13,2.8-15.23,5.5-30.49,8.25-45.73,5.47-30.33,10.93-60.67,16.41-91,1.02-5.64,2.61-7.17,7.53-5.88,1.89.49,3.84,2.91,4.67,4.91,10.58,25.19,20.95,50.46,31.38,75.71,3.85,9.32,7.73,18.63,11.6,27.95.43-.03.87-.06,1.3-.09Z"/>
  <path class="cls-1" d="M285.99,419.63c.04-42.42,33.16-75.62,75.38-75.58,42.22.04,75.55,33.76,75.39,76.27-.16,41.81-33.6,74.73-75.83,74.64-42.27-.09-74.99-32.98-74.95-75.33ZM306.84,419.65c-.03,30.22,23.96,54.37,54.1,54.45,30.39.08,54.92-24.13,54.97-54.26.05-30.17-24.45-54.86-54.49-54.91-30.14-.05-54.54,24.41-54.57,54.72Z"/>
  <path class="cls-1" d="M703.88,427.35c-2.2-.12-3.52-.25-4.83-.25-22.32.03-44.64.17-66.96.04-4.09-.02-5.47,1.09-5.4,5.33.27,17.49.22,34.98.24,52.47,0,6.25-.74,6.97-6.79,7.05-2.66.03-5.33.04-8,.02-5.99-.03-6.82-.83-6.84-7.03-.14-44.47-.22-88.95-.44-133.42-.02-4.45,1.56-6.55,6.08-6.38,3.16.12,6.34.13,9.49-.03,4.59-.24,6.17,2,6.16,6.35-.06,16.82.17,33.65-.02,50.47-.05,4.46,1.05,6,5.81,5.93,22.15-.32,44.31-.33,66.46-.2,4.03.02,5.07-1.23,5.01-5.12-.26-16.82-.24-33.65-.29-50.47-.02-6.45.63-7.06,7.15-7.11,2.5-.02,5-.04,7.5-.03,6.1.03,6.93.8,6.96,6.9.16,30.65.3,61.3.44,91.95.06,13.66.11,27.32.12,40.98,0,5.83-1.14,6.98-7.04,6.98-16.54-.01-14.63,1.79-14.7-14.62-.07-14.66-.07-29.32-.1-43.98,0-1.79,0-3.58,0-5.84Z"/>
  <path class="cls-1" d="M572.78,492.13c-6.73,2.03-10.43-2.05-12.96-8.93-2.41-6.54-5.87-12.69-8.55-19.14-1.23-2.95-2.96-3.86-6.05-3.83-20.16.22-40.32.32-60.49.31-2.96,0-4.48,1.08-5.6,3.75-3.29,7.83-6.93,15.51-10.21,23.34-1.49,3.54-3.74,5.28-7.62,5.08-2.83-.15-5.66,0-8.5-.03-6.76-.07-7.89-1.75-5.16-7.77,9.67-21.39,19.37-42.77,29.05-64.16,10.85-23.98,21.61-48.01,32.64-71.9,1.01-2.18,3.48-4.41,5.74-5.11,3.44-1.06,4.65,2.24,5.85,4.85,20.78,45.42,41.58,90.84,62.35,136.27,2.47,5.41,1.27,7.15-4.84,7.25-1.5.02-3,0-5.65,0ZM515.64,385.33c-.54.07-1.08.14-1.62.2-8.26,18.76-16.51,37.51-24.91,56.58h52.24c-8.8-19.42-17.25-38.1-25.71-56.78Z"/>
  <path class="cls-2" d="M306.84,419.65c.04-30.31,24.43-54.77,54.57-54.72,30.04.05,54.54,24.74,54.49,54.91-.05,30.13-24.58,54.35-54.97,54.26-30.14-.08-54.13-24.23-54.1-54.45Z"/>
  <path class="cls-2" d="M515.64,385.33c8.46,18.68,16.92,37.36,25.71,56.78h-52.24c8.39-19.07,16.65-37.82,24.91-56.58.54-.07,1.08-.14,1.62-.2Z"/>
</svg>